<?xml version="1.0" encoding="UTF-8"?>
<svg width="312px" height="104px" viewBox="0 0 312 104" version="1.1" xmlns="http://www.w3.org/2000/svg" xmlns:xlink="http://www.w3.org/1999/xlink">
    <!-- Generator: Sketch 58 (84663) - https://sketch.com -->
    <title>Zipcar_Car</title>
    <desc>Created with Sketch.</desc>
    <defs>
        <polygon id="path-1" points="0 1.04916076e-13 375 1.04916076e-13 375 140 0 140"></polygon>
    </defs>
    <g id="New-R&amp;R-(ZC-10387)" stroke="none" stroke-width="1" fill="none" fill-rule="evenodd">
        <g id="ZC_Book_Detail_01-placeholder" transform="translate(-31.000000, -182.000000)">
            <g id="Zipcar_Car" transform="translate(0.000000, 164.000000)">
                <mask id="mask-2" fill="white">
                    <use xlink:href="#path-1"></use>
                </mask>
                <g id="Mask"></g>
                <g mask="url(#mask-2)">
                    <g transform="translate(31.000000, 18.000000)">
                        <path d="M300.956893,66.4618967 C300.956893,66.0939416 300.441245,52.6175847 300.441245,52.2496295 C294.296438,47.8801623 286.561715,43.9246445 283.124061,42.4068296 C279.084817,40.6130483 270.963358,37.3934409 242.903503,33.5299119 C236.286019,32.6100241 230.871713,31.9661026 227.477029,31.5981474 C218.625069,25.8488484 210.890346,21.4333868 204.83148,18.2137793 C192.327012,11.498598 185.795468,9.15288405 183.646934,8.41697377 C181.928107,7.81904667 176.728655,6.02526538 169.896317,4.55344483 C155.801933,1.47182055 144.457673,1.65579812 131.093792,1.97775886 C120.179239,2.25372522 108.27636,2.57568596 92.549091,5.56532146 C87.43558,6.53120369 76.4350856,8.64694573 65.34865,12.786441 C63.0282332,13.6603345 49.7502928,18.6737232 45.281342,20.8354597 C44.9805472,20.9734428 43.9062802,21.5253755 42.3593357,22.0773083 C39.8670362,22.9512017 37.9333556,23.2731624 37.202854,23.3651512 C34.4097597,23.7331064 29.124366,24.8369718 21.5185555,26.5387643 C20.4013178,26.5387643 19.0692267,26.5847587 17.5652528,26.860725 C16.1901911,27.1366914 15.0299827,27.5046465 14.041657,27.8726017 C13.912745,27.9185961 13.5689795,28.1025736 13.3111554,28.5165232 C13.0533313,28.9764671 13.0533313,29.3904166 13.096302,29.5283998 C13.1392727,30.1263269 13.4400675,30.2643101 13.7408622,31.0002203 C13.7838329,31.1382035 14.2135397,32.1960745 14.041657,33.2999399 C13.912745,33.9898558 13.6119502,34.4497998 13.4830382,34.6337773 C12.3658005,36.4275586 11.4204455,40.6130483 11.3774748,44.0626277 C11.3774748,45.2124875 11.4204455,46.8222913 11.8501523,48.7540557 C11.5063868,50.2718707 8.06873237,61.448508 10.002413,70.1874425 L3.04885993,71.76 L3.04885993,81.12 L21.7334089,81.272091 L28.6087178,88.0332667 L290.858783,87.9412779 C290.858783,87.9412779 298.20677,82.329962 297.991916,81.272091 L308.95114,81.12 L308.95114,67.6 L300.956893,66.4618967 Z" id="Combined-Shape" fill="#DCDEE0" fill-rule="nonzero"></path>
                        <path d="M133.350743,37.6755589 C134.366805,39.4280322 135.051585,41.2833172 135.424915,43.1686953 L122.716798,50.5001878 L122.899355,49.3135673 L131.935927,44.110693 L131.993211,44.0753836 C132.135951,43.9687042 132.194549,43.7658631 132.072844,43.563022 C131.981566,43.380465 131.70773,43.3348257 131.570813,43.4261042 L131.570813,43.4261042 L123.036273,48.3551431 L123.21883,47.2141619 L127.828394,44.5670854 L127.888474,44.5267945 C128.009525,44.419471 127.999541,44.2247911 127.919673,44.0650537 C127.828394,43.8824967 127.600198,43.7912182 127.417641,43.8824967 L127.417641,43.8824967 L115.186322,50.9565803 L116.966253,36.8540524 L104.643656,43.9737752 L106.19539,46.6208516 L112.767442,42.832794 L111.033151,55.7030621 L110.668037,58.3044993 L110.681872,58.2964668 C110.946335,58.1429364 114.914008,55.8399799 114.958126,55.8399799 L114.958126,55.8399799 L116.144747,55.1553911 L116.124241,54.9530478 C116.024594,53.6031392 116.664165,52.2453457 117.924677,51.5498905 C119.248216,50.7740233 120.79995,50.9565803 121.940931,51.823726 L121.940931,51.823726 L135.567079,43.9861771 C136.632207,51.0866378 133.353626,58.4630508 126.778692,62.2751139 C118.152874,67.249792 107.153815,64.2832409 102.179137,55.7030621 C97.2044584,47.0772441 100.17101,36.0781852 108.751188,31.1035071 C117.331367,26.128829 128.376065,29.0953801 133.350743,37.6755589 Z M122.123488,53.3298212 C121.347621,52.006283 119.658969,51.5498905 118.335431,52.3257577 C117.011892,53.101625 116.5555,54.7902772 117.331367,56.1138154 C118.107234,57.4373536 119.795887,57.8937461 121.119425,57.1178788 C122.442963,56.3420116 122.899355,54.6533594 122.123488,53.3298212 Z" id="Combined-Shape" fill="#FFFFFF" fill-rule="nonzero"></path>
                        <path d="M81.2907726,7.91103546 L88.9395538,31.6441418 L227.434058,31.552153 C218.582098,25.802854 210.847375,21.3873924 204.788509,18.1677849 C192.284041,11.4526037 185.752498,9.10688965 183.603964,8.37097938 C181.885137,7.77305228 176.685684,5.97927098 169.853346,4.50745043 C155.758963,1.42582616 144.414703,1.60980373 131.050821,1.93176447 C120.136268,2.20773083 108.233389,2.52969157 92.5061203,5.51932706 C90.0138208,5.97927098 81.2907726,7.91103546 81.2907726,7.91103546 Z" id="Path" fill="#EDEDEE" fill-rule="nonzero"></path>
                        <path d="M161.486104,0.77881117 L169.024862,4.0965944 L157.852485,33.3030334 L150.313727,29.9852502 L161.486104,0.77881117 Z M154.028344,0.995138098 L157.489581,2.50043571 L146.188292,32.3967906 L142.727055,30.891493 L154.028344,0.995138098 Z" id="Combined-Shape" fill="#FFFFFF" fill-rule="nonzero"></path>
                        <path d="M298.343139,62.6962928 C298.768044,63.0904561 299.194271,63.6784733 299.433334,64.1475951 C299.595379,64.4391973 299.8717,64.9847188 300.086434,65.4444081 C300.212601,65.7144981 300.315586,65.9497875 300.384486,66.126336 C300.415283,66.2052511 300.436685,66.2659576 300.44683,66.3002732 C300.432836,66.25294 300.420789,66.1925216 300.420789,66.0479472 C300.420789,66.9095114 301.103299,67.6079472 301.945219,67.6079472 C302.787138,67.6079472 303.469649,66.9095114 303.469649,66.0479472 C303.469649,65.334649 302.756894,63.8088313 302.107328,62.6500403 C301.739082,61.9247025 301.098982,61.0416303 300.390817,60.3847007 C299.767043,59.8060561 298.802986,59.8544395 298.237536,60.4927681 C297.672085,61.1310966 297.719365,62.1176483 298.343139,62.6962928 Z" id="Path" fill="#C0C1C2" fill-rule="nonzero"></path>
                        <path d="M14.6192381,29.4338132 C14.6186403,29.4081448 14.6182834,29.3940595 14.6164085,29.3894911 L14.6396413,29.3549932 C14.6575063,29.3263101 14.6720214,29.3151238 14.586497,29.345638 C15.7164336,28.9251111 16.7372974,28.6317012 17.8188459,28.4449829 C19.1742666,28.1963587 20.4032469,28.1001056 21.4572783,28.1434979 C21.587164,28.148845 21.7171847,28.1371694 21.8441753,28.1087554 C29.5731638,26.3794019 34.7394486,25.3051016 37.4844369,24.8599281 C38.9017558,24.6708772 40.7975576,24.2430331 42.896439,23.5070867 L42.772035,23.5447362 C43.6270154,23.246449 44.2995561,22.9725709 44.9429584,22.6837711 C45.3129326,22.5177032 46.0430217,22.1693401 45.9478819,22.2129834 C49.4524818,20.5017609 61.2433073,15.8726167 65.8934899,14.213483 C74.6800489,10.9328962 82.6735317,8.97917325 92.8687688,7.05341258 C105.928452,4.56406561 115.371644,3.82426952 131.168143,3.4914339 C149.475522,3.05038193 157.793621,3.44710661 169.620771,6.03301853 C174.977963,7.22313581 179.520232,8.56814954 183.199268,9.84797306 C187.74774,11.4059219 194.302591,14.2885039 204.169892,19.5511725 C211.259595,23.3185563 218.803875,27.7387569 226.703109,32.8692654 C226.901339,32.9980147 227.125951,33.0781679 227.35943,33.1034751 C231.428112,33.544486 236.842226,34.214992 242.742581,35.0299011 C265.32417,38.1761496 275.420006,40.7024104 282.57334,43.7976687 C287.120602,45.8054476 291.706329,48.301149 296.596398,51.6928227 L296.596398,51.9276688 C296.596398,52.789233 297.278909,53.4876688 298.120828,53.4876688 C298.962748,53.4876688 299.645258,52.789233 299.645258,51.9276688 L299.645258,50.8697978 C299.645258,50.3570467 299.399032,49.8770359 298.986628,49.5858191 C293.671318,45.8324404 288.705086,43.1070231 283.770946,40.9284707 C276.328371,37.708012 265.981622,35.118966 243.15213,31.9381785 C237.391363,31.1425474 232.090544,30.4837215 228.03548,30.0395069 C220.169286,24.9425008 212.650533,20.5421165 205.576975,16.7833141 C195.573274,11.4478951 188.8715,8.50070223 184.17376,6.89164444 C180.399909,5.57881963 175.750562,4.20209905 170.262687,2.98295884 C158.137436,0.331860906 149.625679,-0.074100135 131.100883,0.372196608 C115.156792,0.708135228 105.565964,1.4594974 92.3129119,3.98570504 C81.9652349,5.94025772 73.8336268,7.92774046 64.8690971,11.2749505 C60.1392712,12.9623291 48.2688154,17.6227366 44.6676838,19.3816006 C44.763521,19.3371493 44.0486261,19.6782624 43.718273,19.8265459 C43.1438454,20.0843855 42.5439702,20.328672 41.9004371,20.5582775 L42.0325778,20.5178916 C40.0158282,21.2190681 38.3158933,21.6027091 37.0481949,21.7723218 C34.2077505,22.232398 29.0620915,23.3013664 21.3789995,25.0191461 C20.1456845,24.9853907 18.7665238,25.1014169 17.2962019,25.3712084 C16.0295814,25.5897938 14.8358405,25.9328908 13.5634414,26.4066069 C13.0560222,26.5875025 12.4963826,27.0138614 12.0971344,27.6330466 C12.0296563,27.7300154 11.9688342,27.8303053 11.9145486,27.9334469 C11.6249111,28.483753 11.5583686,28.9553736 11.5712439,29.5081581 C11.5716108,29.5244345 11.5717979,29.5327329 11.5718791,29.535437 C11.5729881,30.0893794 11.7051263,30.5401152 11.9575237,30.9847767 C11.9772985,31.0196151 12.2305076,31.4273529 12.2799173,31.527066 C12.2989845,31.5655453 12.317006,31.6053854 12.3345008,31.6481872 C12.375656,31.740766 12.4384212,31.9268078 12.4848157,32.1371286 C12.5572194,32.4653578 12.5781864,32.7849379 12.5362189,33.0544616 C12.488491,33.3059241 12.3822383,33.5276963 12.2441767,33.7247319 C10.8992534,35.9329989 9.89921498,40.395545 9.85317204,44.0424747 C9.80067804,45.3777789 9.93301603,47.0137405 10.2830128,48.7223796 C10.0722694,49.5518036 9.46276972,52.0148164 9.1553269,53.4766574 C8.34179708,57.3448603 7.87324349,61.0625507 7.89614875,64.5896609 C7.91135783,66.7186364 8.10963148,68.7068144 8.51600707,70.5336924 C8.70287538,71.3737666 9.51984869,71.8997598 10.340768,71.7085312 C11.1616873,71.5173027 11.6756873,70.6812666 11.4888189,69.8411925 C11.1348669,68.2499867 10.958706,66.4835434 10.9457989,64.5681463 C10.9237822,61.3009157 11.3654155,57.7968217 12.1359382,54.1331106 C12.4984065,52.409632 13.3504983,49.032174 13.3441689,49.0641124 C13.3871425,48.8472667 13.3845482,48.6235468 13.3365582,48.4078058 C12.9863433,46.8334003 12.8538552,45.3280233 12.9006966,44.1247223 C12.941234,40.9575511 13.8206137,37.0334293 14.7778207,35.4571791 C15.096002,35.0089204 15.3884228,34.3985752 15.5389606,33.5929223 C15.7348707,32.3394854 15.4666571,31.1235878 15.1162267,30.3734095 C15.1007232,30.3304764 15.0514801,30.221615 14.9991553,30.116019 C14.9022698,29.9204955 14.6971277,29.5802687 14.6198073,29.4562107 C14.6196662,29.4498879 14.6194897,29.4432604 14.6192381,29.4338132 Z" id="Path" fill="#C0C1C2" fill-rule="nonzero"></path>
                        <path d="M14.041657,33.2999399 C17.7801062,33.2539456 22.2060864,33.4379231 27.104744,34.2658222 C31.2729,34.9557381 34.9683786,35.9216203 38.148209,36.9794913 C34.9254079,42.5908072 31.3588414,44.9365212 29.2103074,45.9943922 C23.4092654,46.91428 17.6511942,47.8341679 11.8501523,48.7540557 C11.5063868,46.9602744 11.1626214,44.1546165 11.6352989,40.7510315 C12.150947,37.3934409 13.2252141,34.8637493 14.041657,33.2999399 Z" id="Path" fill="#FFFFFF" fill-rule="nonzero"></path>
                        <path d="M12.6970939,32.5648213 C12.9591076,32.0629621 13.4673502,31.7468929 14.0233308,31.7400527 C18.5316431,31.6845866 22.8779945,31.9703477 27.3481518,32.7258366 C31.3371571,33.3860994 35.1053503,34.3268222 38.6195149,35.4959201 C39.5460162,35.80415 39.9560977,36.910446 39.4624512,37.7699487 C36.6185113,42.7216179 33.3591954,45.6827861 29.8712504,47.4001412 C29.7360568,47.4667063 29.5920015,47.5124839 29.4437428,47.5359937 C27.0270183,47.9192206 25.098898,48.2258199 20.7645126,48.9156909 C16.4295631,49.6056516 14.5010648,49.912311 12.0835877,50.2956573 C11.2749884,50.4238792 10.5116894,49.8759653 10.3542184,49.0542756 C9.84369923,46.3903669 9.69959767,43.6021546 10.1293534,40.5088342 C10.5976191,37.4597695 11.5151681,34.8286741 12.6970939,32.5648213 Z M13.1445636,40.9705282 C12.8483608,43.1033808 12.8659733,45.081057 13.1091576,46.9756717 C14.9547368,46.6826993 16.8765612,46.3769945 20.2959471,45.832757 C24.4932518,45.1647041 26.4345,44.8559977 28.7479766,44.4890899 C31.2356901,43.2198859 33.6078323,41.1670734 35.7978228,37.8685267 C32.9748982,37.0205079 29.9894389,36.3235717 26.8563465,35.8049731 C22.8746985,35.1320536 18.9921927,34.8476167 14.9813193,34.853366 C14.1466049,36.636731 13.4978592,38.6710203 13.1445636,40.9705282 Z" id="Path" fill="#C0C1C2" fill-rule="nonzero"></path>
                        <path d="M299.366978,62.1844182 C293.308112,60.0226818 288.75322,59.102794 286.733598,58.3668837 C286.346862,58.2289005 285.401507,57.8609454 284.198328,57.2170239 C282.780295,56.4351192 281.79197,55.6072202 280.846615,54.8253155 C278.01055,52.4336071 277.237077,51.6976968 275.776074,50.3638594 C273.068921,47.9721511 273.62754,46.8682856 277.537872,47.6041959 C280.631761,48.202123 282.694354,48.4780894 286.21795,49.1220109 C288.710249,49.5819548 293.565936,50.547837 298.077858,51.3297417 L300.484216,52.2496295 C300.999864,52.4336071 301.343629,52.9855398 301.343629,53.6294613 L301.515512,61.6784799 L299.366978,62.1844182 Z" id="Path" fill="#FFFFFF" fill-rule="nonzero"></path>
                        <path d="M299.708833,63.7046873 C299.428861,63.7706153 299.136382,63.754242 298.865109,63.6574546 C294.944232,62.258529 286.42593,59.9107193 286.231729,59.83992 C285.497979,59.5781262 284.540368,59.1605358 283.475214,58.5903484 C282.757663,58.1946901 282.104755,57.7695685 281.450488,57.2842079 C280.976432,56.9325349 280.687295,56.6993744 279.87713,56.0291951 C278.019739,54.4628211 276.997566,53.5690229 275.831352,52.5063956 L275.771611,52.4519351 C275.595825,52.2916102 274.924649,51.6771283 274.779877,51.5446805 C270.768998,48.0011595 272.526489,45.0749107 277.820766,46.0712926 C278.943445,46.2882623 279.953647,46.4682576 281.273173,46.6906935 C281.483738,46.7261382 281.483738,46.7261382 281.694945,46.7615275 C281.923956,46.7998666 282.229807,46.8508741 282.776988,46.9421443 C283.217547,47.0157336 283.565001,47.0741576 283.913344,47.1333834 C284.805654,47.2850954 285.623389,47.4286783 286.488498,47.5867755 C287.040023,47.6885572 292.70354,48.7712652 294.716868,49.1428169 C295.372006,49.2637199 296.001848,49.3784744 296.61125,49.4878324 C297.205775,49.5945209 297.779011,49.6957415 298.33239,49.7916407 C298.427528,49.808128 298.520922,49.8338218 298.611314,49.8683763 L300.986085,50.7765932 C302.145064,51.1901039 302.868059,52.35091 302.867695,53.5953791 L303.039578,61.6443978 C303.055367,62.3837823 302.561659,63.0329018 301.857367,63.198749 L299.708833,63.7046873 Z M299.964392,60.4429696 L299.819871,53.6609597 L297.680098,52.8429806 C297.165196,52.7534542 296.633761,52.6594806 296.084638,52.5609396 C295.470204,52.4506786 294.835563,52.3350497 294.175771,52.2132877 C292.149912,51.8394236 286.486396,50.7567156 285.949959,50.6577159 C285.100322,50.5024486 284.294491,50.3609561 283.413641,50.2111924 C283.068582,50.1525249 282.723779,50.0945468 282.28583,50.0213935 C281.739837,49.9303215 281.432816,49.879119 281.202711,49.8405966 C280.990116,49.8049748 280.990116,49.8049748 280.777617,49.7692045 C279.436484,49.5431264 278.404051,49.3591698 277.262145,49.1384663 C277.025944,49.094014 276.804885,49.0572143 276.599742,49.0278332 C276.660838,49.0837994 276.724562,49.1411307 276.790917,49.1997839 C276.956676,49.3511157 277.627086,49.9648962 277.800159,50.1227462 L277.858827,50.1762286 C278.994986,51.2114704 279.987753,52.0795563 281.804865,53.6120537 C282.560953,54.237415 282.824468,54.4499138 283.239946,54.7581315 C283.789119,55.1655288 284.3287,55.5168611 284.904795,55.834656 C285.81575,56.3221841 286.637126,56.6803658 287.244955,56.8972684 C287.298518,56.9167857 295.250154,59.1085692 299.449872,60.5641291 L299.964392,60.4429696 Z" id="Path" fill="#C0C1C2" fill-rule="nonzero"></path>
                        <path d="M82.7384998,7.42242966 C82.4748031,6.60421568 81.6128653,6.15967846 80.8133076,6.42952799 C80.01375,6.69937752 79.5793488,7.58142728 79.8430454,8.39964126 L87.4918266,32.1327476 C87.6980152,32.7725223 88.2822327,33.2045786 88.9405429,33.2041418 L227.478018,33.1121527 C228.319937,33.1115937 229.001459,32.4127049 229.001459,31.5511408 C229.001459,30.6895768 228.317959,29.9915943 227.47604,29.9921534 L90.0417526,30.0834096 L82.7384998,7.42242966 Z" id="Path" fill="#C0C1C2" fill-rule="nonzero"></path>
                        <path d="M140.383031,35.2995011 L140.355016,35.0082113 L140.355612,35.1552069 L140.383031,35.2995011 Z M140.569869,87.9477568 C140.573366,88.8093135 141.258705,89.5048426 142.100617,89.5012782 C142.942529,89.4976862 143.622199,88.7963558 143.618716,87.934799 L143.403849,34.9952536 C143.403453,34.8974731 143.394073,34.7999473 143.375834,34.7039638 L137.188056,2.13993412 C137.027353,1.29421072 136.227115,0.741932017 135.400675,0.906385112 C134.574236,1.07083821 134.03455,1.88974806 134.195253,2.73547146 L140.355612,35.1552069 L140.569869,87.9477568 Z" id="Path" fill="#C0C1C2" fill-rule="nonzero"></path>
                        <path d="M223.394814,73.3188705 L191.080862,73.3188705 C190.238943,73.3188705 189.556432,74.0173063 189.556432,74.8788705 C189.556432,75.7404347 190.238943,76.4388705 191.080862,76.4388705 L223.394814,76.4388705 C224.236734,76.4388705 224.919244,75.7404347 224.919244,74.8788705 C224.919244,74.0173063 224.236734,73.3188705 223.394814,73.3188705 Z" id="Path" fill="#C0C1C2" fill-rule="nonzero"></path>
                        <path d="M99.553312,80.9923153 L116.48376,80.9923153 C117.32568,80.9923153 118.00819,80.2938795 118.00819,79.4323153 C118.00819,78.5707511 117.32568,77.8723153 116.48376,77.8723153 L99.553312,77.8723153 C98.7113925,77.8723153 98.028882,78.5707511 98.028882,79.4323153 C98.028882,80.2938795 98.7113925,80.9923153 99.553312,80.9923153 Z" id="Path" fill="#C0C1C2" fill-rule="nonzero"></path>
                        <path d="M149.27039,45.2546726 L158.809881,45.2546726 C159.6518,45.2546726 160.334311,44.5562368 160.334311,43.6946726 C160.334311,42.8331084 159.6518,42.1346726 158.809881,42.1346726 L149.27039,42.1346726 C148.42847,42.1346726 147.74596,42.8331084 147.74596,43.6946726 C147.74596,44.5562368 148.42847,45.2546726 149.27039,45.2546726 Z" id="Path" fill="#C0C1C2" fill-rule="nonzero"></path>
                        <path d="M225.952599,31.552153 L225.952599,65.3120369 C225.952599,66.1736011 226.63511,66.8720369 227.477029,66.8720369 C228.318948,66.8720369 229.001459,66.1736011 229.001459,65.3120369 L229.001459,31.552153 C229.001459,30.6905888 228.318948,29.992153 227.477029,29.992153 C226.63511,29.992153 225.952599,30.6905888 225.952599,31.552153 Z" id="Path" fill="#C0C1C2" fill-rule="nonzero"></path>
                        <path d="M42.9041465,68.6274425 C43.9514063,68.6274425 44.6867968,69.6831999 44.3452022,70.6962825 C43.6678085,72.7052592 42.6768904,78.5065468 42.2282745,82.8320857 C42.145991,83.6254599 41.491997,84.2274425 40.7123585,84.2274425 L2.25268075,84.2274425 C1.41076133,84.2274425 0.728250784,83.5290067 0.728250784,82.6674425 L0.728250784,70.1874425 C0.728250784,69.3258783 1.41076133,68.6274425 2.25268075,68.6274425 L42.9041465,68.6274425 Z M3.77711072,71.7474425 L3.77711072,81.1074425 L39.352845,81.1074425 C39.7390157,77.8864522 40.3392867,74.2423352 40.9083651,71.7474425 L3.77711072,71.7474425 Z" id="Rectangle-3-Copy_6_" fill="#C0C1C2" fill-rule="nonzero"></path>
                        <path d="M309.586367,64.9478911 C310.428287,64.9478911 311.110797,65.6463269 311.110797,66.5078911 L311.110797,81.3180854 C311.110797,82.1796496 310.428287,82.8780854 309.586367,82.8780854 L280.96096,82.8780854 C280.169468,82.8780854 279.509635,82.2582173 279.442091,81.4512111 C279.174923,78.2591108 278.933466,76.7379759 278.295661,73.9664361 C277.883228,72.2641325 277.06313,70.0606211 275.816071,67.4023425 C275.64258,67.1490893 275.540765,66.8406578 275.540765,66.5078911 L275.540765,66.4618967 C275.540765,65.3183077 276.584601,64.7188545 277.463367,64.9478911 L309.586367,64.9478911 Z M281.259119,73.2333782 C281.831337,75.719496 282.109144,77.2987051 282.350986,79.7580854 L308.061937,79.7580854 L308.061937,68.0678911 L279.468314,68.0678911 C280.309359,70.0424759 280.9036,71.7656587 281.259119,73.2333782 Z" id="Rectangle-3-Copy_5_" fill="#C0C1C2" fill-rule="nonzero"></path>
                        <path d="M29.0079458,86.84 L23.3342225,82.0015748 C22.6874421,81.4500148 21.7261903,81.5394404 21.1872066,82.2013123 C20.648223,82.8631843 20.7356095,83.8468652 21.3823899,84.3984252 L27.4801098,89.5984252 C27.7540727,89.8320547 28.0994062,89.96 28.4560261,89.96 L290.65798,89.96 C291.062284,89.96 291.450029,89.7956433 291.735915,89.5030866 L297.833635,83.2630866 C298.428962,82.6538687 298.428962,81.6661313 297.833635,81.0569134 C297.238308,80.4476955 296.273092,80.4476955 295.677766,81.0569134 L290.026541,86.84 L29.0079458,86.84 Z" id="Path-2" fill="#C0C1C2" fill-rule="nonzero"></path>
                        <g id="Group" stroke-width="1" fill="none" fill-rule="evenodd" transform="translate(222.058632, 50.440000)">
                            <path d="M59.0546027,38.1949222 C59.6545379,35.7570435 59.9609121,33.2384644 59.9609121,30.68 C59.9609121,13.7359039 46.5382047,-3.55271368e-14 29.980456,-3.55271368e-14 C13.4227074,-3.55271368e-14 0,13.7359039 0,30.68 C0,33.2954078 0.320165944,35.8690199 0.946697847,38.3571602 C1.15678322,39.1914702 1.98801155,39.6935305 2.80329828,39.4785431 C3.61858501,39.2635558 4.10919764,38.4129321 3.89911226,37.578622 C3.33648701,35.3442736 3.04885993,33.032221 3.04885993,30.68 C3.04885993,15.4590323 15.1065462,3.12 29.980456,3.12 C44.8543658,3.12 56.9120521,15.4590323 56.9120521,30.68 C56.9120521,32.9810471 56.6368061,35.2437342 56.0980523,37.4329979 C55.8924502,38.2684768 56.387623,39.1163288 57.2040519,39.3267283 C58.0204807,39.5371279 58.8490005,39.030401 59.0546027,38.1949222 Z" id="Path" fill="#C0C1C2" fill-rule="nonzero"></path>
                            <circle id="Oval" fill="#FFFFFF" fill-rule="nonzero" cx="29.980456" cy="30.68" r="20"></circle>
                            <path d="M29.980456,53.04 C42.0479678,53.04 51.8306189,43.029087 51.8306189,30.68 C51.8306189,18.330913 42.0479678,8.32 29.980456,8.32 C17.9129443,8.32 8.13029316,18.330913 8.13029316,30.68 C8.13029316,43.029087 17.9129443,53.04 29.980456,53.04 Z M29.980456,49.92 C19.5967831,49.92 11.1791531,41.3059586 11.1791531,30.68 C11.1791531,20.0540414 19.5967831,11.44 29.980456,11.44 C40.3641289,11.44 48.781759,20.0540414 48.781759,30.68 C48.781759,41.3059586 40.3641289,49.92 29.980456,49.92 Z" id="Oval" fill="#C0C1C2" fill-rule="nonzero"></path>
                            <path d="M9.98045603,30.28 C11.980456,16.9466667 18.6471227,10.28 29.980456,10.28 C41.3137894,10.28 47.980456,16.9466667 49.980456,30.28 L9.98045603,30.28 Z" id="Path" fill="#F1F2F3" fill-rule="nonzero"></path>
                            <path d="M29.980456,42.64 C23.5232563,42.64 18.2931596,37.2878677 18.2931596,30.68 C18.2931596,24.0721323 23.5232563,18.72 29.980456,18.72 C36.4249501,18.72 41.6677524,24.0995568 41.6677524,30.68 C41.6677524,37.2748656 36.4108565,42.64 29.980456,42.64 Z M29.980456,39.52 C34.7288472,39.52 38.6188925,35.5498594 38.6188925,30.68 C38.6188925,25.820813 34.7392763,21.84 29.980456,21.84 C25.2070952,21.84 21.3420195,25.7952607 21.3420195,30.68 C21.3420195,35.5647393 25.2070952,39.52 29.980456,39.52 Z" id="Path" fill="#C0C1C2" fill-rule="nonzero"></path>
                            <path d="M11.1791531,30.68 C11.1791531,20.0529228 19.59569,11.44 29.980456,11.44 C40.365222,11.44 48.781759,20.0529228 48.781759,30.68 L51.8306189,30.68 C51.8306189,18.3297944 42.0490609,8.32 29.980456,8.32 C17.9118512,8.32 8.13029316,18.3297944 8.13029316,30.68 L11.1791531,30.68 Z" id="Path" fill="#C0C1C2" fill-rule="nonzero"></path>
                        </g>
                        <g id="Group" stroke-width="1" fill="none" fill-rule="evenodd" transform="translate(39.635179, 50.440000)">
                            <path d="M59.0546027,38.1949222 C59.6545379,35.7570435 59.9609121,33.2384644 59.9609121,30.68 C59.9609121,13.7359039 46.5382047,-3.55271368e-14 29.980456,-3.55271368e-14 C13.4227074,-3.55271368e-14 0,13.7359039 0,30.68 C0,33.2954078 0.320165944,35.8690199 0.946697847,38.3571602 C1.15678322,39.1914702 1.98801155,39.6935305 2.80329828,39.4785431 C3.61858501,39.2635558 4.10919764,38.4129321 3.89911226,37.578622 C3.33648701,35.3442736 3.04885993,33.032221 3.04885993,30.68 C3.04885993,15.4590323 15.1065462,3.12 29.980456,3.12 C44.8543658,3.12 56.9120521,15.4590323 56.9120521,30.68 C56.9120521,32.9810471 56.6368061,35.2437342 56.0980523,37.4329979 C55.8924502,38.2684768 56.387623,39.1163288 57.2040519,39.3267283 C58.0204807,39.5371279 58.8490005,39.030401 59.0546027,38.1949222 Z" id="Path" fill="#C0C1C2" fill-rule="nonzero"></path>
                            <circle id="Oval" fill="#FFFFFF" fill-rule="nonzero" cx="29.980456" cy="30.68" r="20"></circle>
                            <path d="M29.980456,53.04 C42.0479678,53.04 51.8306189,43.029087 51.8306189,30.68 C51.8306189,18.330913 42.0479678,8.32 29.980456,8.32 C17.9129443,8.32 8.13029316,18.330913 8.13029316,30.68 C8.13029316,43.029087 17.9129443,53.04 29.980456,53.04 Z M29.980456,49.92 C19.5967831,49.92 11.1791531,41.3059586 11.1791531,30.68 C11.1791531,20.0540414 19.5967831,11.44 29.980456,11.44 C40.3641289,11.44 48.781759,20.0540414 48.781759,30.68 C48.781759,41.3059586 40.3641289,49.92 29.980456,49.92 Z" id="Oval" fill="#C0C1C2" fill-rule="nonzero"></path>
                            <path d="M9.98045603,30.28 C11.980456,16.9466667 18.6471227,10.28 29.980456,10.28 C41.3137894,10.28 47.980456,16.9466667 49.980456,30.28 L9.98045603,30.28 Z" id="Path" fill="#F1F2F3" fill-rule="nonzero"></path>
                            <path d="M29.980456,42.64 C23.5232563,42.64 18.2931596,37.2878677 18.2931596,30.68 C18.2931596,24.0721323 23.5232563,18.72 29.980456,18.72 C36.4249501,18.72 41.6677524,24.0995568 41.6677524,30.68 C41.6677524,37.2748656 36.4108565,42.64 29.980456,42.64 Z M29.980456,39.52 C34.7288472,39.52 38.6188925,35.5498594 38.6188925,30.68 C38.6188925,25.820813 34.7392763,21.84 29.980456,21.84 C25.2070952,21.84 21.3420195,25.7952607 21.3420195,30.68 C21.3420195,35.5647393 25.2070952,39.52 29.980456,39.52 Z" id="Path" fill="#C0C1C2" fill-rule="nonzero"></path>
                            <path d="M11.1791531,30.68 C11.1791531,20.0529228 19.59569,11.44 29.980456,11.44 C40.365222,11.44 48.781759,20.0529228 48.781759,30.68 L51.8306189,30.68 C51.8306189,18.3297944 42.0490609,8.32 29.980456,8.32 C17.9118512,8.32 8.13029316,18.3297944 8.13029316,30.68 L11.1791531,30.68 Z" id="Path" fill="#C0C1C2" fill-rule="nonzero"></path>
                        </g>
                    </g>
                </g>
            </g>
        </g>
    </g>
</svg>